<svg width="470" height="98" viewBox="0 0 470 98" fill="none" xmlns="http://www.w3.org/2000/svg">
<g filter="url(#filter0_d_436_6258)">
<path d="M428.994 77.6571C424.5 77.6571 420.627 76.7984 417.375 75.0811C414.141 73.3456 411.648 70.861 409.894 67.6274C408.158 64.3755 407.291 60.4842 407.291 55.9535C407.291 51.6055 408.167 47.8056 409.921 44.5537C411.675 41.3018 414.151 38.7716 417.348 36.9629C420.545 35.1543 424.317 34.25 428.665 34.25C431.844 34.25 434.721 34.7433 437.297 35.7298C439.873 36.7163 442.075 38.1504 443.902 40.0321C445.728 41.8956 447.135 44.1609 448.122 46.8282C449.108 49.4955 449.601 52.5007 449.601 55.8439V59.3516H412.004V51.0209H435.681C435.662 49.8152 435.352 48.7556 434.749 47.8421C434.164 46.9104 433.369 46.1888 432.365 45.6772C431.378 45.1474 430.255 44.8825 428.994 44.8825C427.77 44.8825 426.647 45.1474 425.623 45.6772C424.6 46.1888 423.778 46.9013 423.157 47.8147C422.554 48.7282 422.235 49.7969 422.198 51.0209V60.0092C422.198 61.3611 422.481 62.5669 423.047 63.6265C423.614 64.6861 424.427 65.5173 425.486 66.1202C426.546 66.7231 427.825 67.0245 429.323 67.0245C430.364 67.0245 431.314 66.8784 432.173 66.5861C433.05 66.2938 433.799 65.8736 434.42 65.3255C435.041 64.7592 435.498 64.0832 435.79 63.2977H449.601C449.126 66.2207 448.003 68.7601 446.231 70.9158C444.459 73.0533 442.111 74.7158 439.188 75.9032C436.283 77.0725 432.885 77.6571 428.994 77.6571Z" fill="white"/>
<path d="M401.931 48.4998H388.01C387.937 47.6412 387.635 46.9013 387.106 46.2801C386.576 45.659 385.891 45.184 385.05 44.8551C384.228 44.508 383.315 44.3345 382.31 44.3345C381.013 44.3345 379.899 44.572 378.967 45.047C378.035 45.522 377.578 46.1979 377.597 47.0748C377.578 47.696 377.843 48.2714 378.391 48.8012C378.958 49.331 380.045 49.7421 381.652 50.0344L390.202 51.569C394.514 52.3545 397.72 53.679 399.821 55.5425C401.94 57.3876 403.009 59.8631 403.027 62.9688C403.009 65.9649 402.114 68.5683 400.342 70.7788C398.588 72.9711 396.185 74.6701 393.134 75.8758C390.102 77.0633 386.64 77.6571 382.748 77.6571C376.318 77.6571 371.285 76.3417 367.649 73.711C364.032 71.0802 362.013 67.6091 361.593 63.2977H376.61C376.811 64.6313 377.469 65.6635 378.583 66.3942C379.716 67.1067 381.141 67.463 382.858 67.463C384.247 67.463 385.388 67.2255 386.284 66.7505C387.197 66.2755 387.663 65.5996 387.681 64.7226C387.663 63.9188 387.261 63.2794 386.475 62.8044C385.708 62.3294 384.502 61.9458 382.858 61.6535L375.404 60.3381C371.111 59.5891 367.896 58.1641 365.758 56.0631C363.621 53.9622 362.561 51.2584 362.58 47.9517C362.561 45.0287 363.329 42.5532 364.881 40.5254C366.453 38.4793 368.691 36.9264 371.595 35.8668C374.518 34.7889 377.98 34.25 381.981 34.25C388.065 34.25 392.86 35.5106 396.368 38.0317C399.894 40.5528 401.748 44.0422 401.931 48.4998Z" fill="white"/>
<path d="M329.999 76.8898V34.7981H344.687V42.7999H345.125C345.893 39.8403 347.108 37.6754 348.77 36.3053C350.451 34.9351 352.415 34.25 354.662 34.25C355.32 34.25 355.968 34.3048 356.608 34.4144C357.265 34.5058 357.896 34.6428 358.498 34.8255V47.7325C357.749 47.4767 356.827 47.2849 355.731 47.157C354.635 47.0291 353.694 46.9652 352.908 46.9652C351.428 46.9652 350.095 47.3032 348.907 47.9791C347.738 48.6368 346.815 49.5685 346.139 50.7743C345.463 51.9618 345.125 53.3593 345.125 54.967V76.8898H329.999Z" fill="white"/>
<path d="M303.217 77.6571C298.723 77.6571 294.85 76.7984 291.598 75.0811C288.365 73.3456 285.871 70.861 284.117 67.6274C282.382 64.3755 281.514 60.4842 281.514 55.9535C281.514 51.6055 282.391 47.8056 284.145 44.5537C285.898 41.3018 288.374 38.7716 291.571 36.9629C294.768 35.1543 298.541 34.25 302.889 34.25C306.067 34.25 308.945 34.7433 311.521 35.7298C314.097 36.7163 316.298 38.1504 318.125 40.0321C319.952 41.8956 321.359 44.1609 322.345 46.8282C323.332 49.4955 323.825 52.5007 323.825 55.8439V59.3516H286.227V51.0209H309.904C309.886 49.8152 309.575 48.7556 308.972 47.8421C308.388 46.9104 307.593 46.1888 306.588 45.6772C305.602 45.1474 304.478 44.8825 303.217 44.8825C301.993 44.8825 300.87 45.1474 299.847 45.6772C298.824 46.1888 298.002 46.9013 297.381 47.8147C296.778 48.7282 296.458 49.7969 296.421 51.0209V60.0092C296.421 61.3611 296.705 62.5669 297.271 63.6265C297.837 64.6861 298.65 65.5173 299.71 66.1202C300.769 66.7231 302.048 67.0245 303.546 67.0245C304.588 67.0245 305.538 66.8784 306.396 66.5861C307.273 66.2938 308.022 65.8736 308.643 65.3255C309.264 64.7592 309.721 64.0832 310.013 63.2977H323.825C323.35 66.2207 322.226 68.7601 320.454 70.9158C318.682 73.0533 316.335 74.7158 313.412 75.9032C310.507 77.0725 307.109 77.6571 303.217 77.6571Z" fill="white"/>
<path d="M192.223 20.7676H209.213L220.175 43.5673H220.613L231.575 20.7676H248.565L227.957 59.242L215.033 76.8899H212.831V59.242L192.223 20.7676Z" fill="white"/>
<path d="M141.166 76.8899V68.4496L167.692 33.0443H141.275V20.7676H187.094V29.2078L160.567 64.6131H186.984V76.8899H141.166Z" fill="white"/>
<path d="M133.896 48.8284C133.896 55.0764 132.681 60.347 130.251 64.6402C127.821 68.9152 124.542 72.1579 120.413 74.3685C116.284 76.5607 111.68 77.6569 106.602 77.6569C101.486 77.6569 96.8643 76.5516 92.7356 74.3411C88.625 72.1122 85.3549 68.8604 82.9251 64.5854C80.5136 60.2922 79.3079 55.0399 79.3079 48.8284C79.3079 42.5804 80.5136 37.319 82.9251 33.044C85.3549 28.7508 88.625 25.5081 92.7356 23.3158C96.8643 21.1053 101.486 20 106.602 20C111.68 20 116.284 21.1053 120.413 23.3158C124.542 25.5081 127.821 28.7508 130.251 33.044C132.681 37.319 133.896 42.5804 133.896 48.8284ZM118.221 48.8284C118.221 45.4669 117.773 42.6353 116.878 40.3334C116.001 38.0132 114.695 36.2594 112.959 35.0719C111.242 33.8661 109.123 33.2633 106.602 33.2633C104.081 33.2633 101.952 33.8661 100.217 35.0719C98.4994 36.2594 97.1932 38.0132 96.298 40.3334C95.4211 42.6353 94.9826 45.4669 94.9826 48.8284C94.9826 52.1899 95.4211 55.0308 96.298 57.3509C97.1932 59.6528 98.4994 61.4066 100.217 62.6124C101.952 63.7999 104.081 64.3936 106.602 64.3936C109.123 64.3936 111.242 63.7999 112.959 62.6124C114.695 61.4066 116.001 59.6528 116.878 57.3509C117.773 55.0308 118.221 52.1899 118.221 48.8284Z" fill="white"/>
<path d="M72.6146 41.8132H57.1591C57.0495 40.5343 56.7572 39.3742 56.2822 38.3329C55.8255 37.2916 55.186 36.3964 54.3639 35.6474C53.5601 34.8801 52.5827 34.2955 51.4318 33.8936C50.2808 33.4734 48.9746 33.2633 47.5131 33.2633C44.9554 33.2633 42.7905 33.8844 41.0184 35.1267C39.2646 36.369 37.931 38.1502 37.0175 40.4704C36.1224 42.7905 35.6748 45.5766 35.6748 48.8284C35.6748 52.263 36.1315 55.1404 37.045 57.4605C37.9767 59.7624 39.3194 61.498 41.0733 62.6672C42.8271 63.8181 44.9371 64.3936 47.4035 64.3936C48.8102 64.3936 50.0707 64.22 51.1851 63.8729C52.2995 63.5076 53.2678 62.9869 54.0899 62.3109C54.912 61.635 55.5788 60.822 56.0904 59.872C56.6202 58.9038 56.9764 57.8168 57.1591 56.611L72.6146 56.7206C72.4319 59.0956 71.7651 61.5162 70.6142 63.9825C69.4632 66.4306 67.8282 68.6959 65.709 70.7786C63.608 72.843 61.0047 74.5055 57.899 75.766C54.7933 77.0266 51.1851 77.6569 47.0746 77.6569C41.9228 77.6569 37.3007 76.5516 33.2085 74.3411C29.1345 72.1305 25.91 68.8786 23.535 64.5854C21.1783 60.2922 20 55.0399 20 48.8284C20 42.5804 21.2058 37.319 23.6173 33.044C26.0288 28.7508 29.2806 25.5081 33.3729 23.3158C37.4651 21.1053 42.0324 20 47.0746 20C50.6188 20 53.8798 20.4841 56.8576 21.4524C59.8355 22.4206 62.448 23.8365 64.695 25.6999C66.9421 27.5451 68.7507 29.8196 70.1209 32.5234C71.4911 35.2272 72.3223 38.3238 72.6146 41.8132Z" fill="white"/>
<path d="M231.763 20.666H248.079L219.775 76.8885H203.46L231.763 20.666Z" fill="white"/>
<path fill-rule="evenodd" clip-rule="evenodd" d="M232.264 34.998H231.901L229.917 38.305L228.563 42.1634L228.61 42.2568L232.264 34.998ZM236.768 58.4616L246.044 76.8891H247.244V76.8893H261.617L282.705 34.998H266.39L253.831 59.946L244.926 42.2568L236.768 58.4616Z" fill="white"/>
</g>
<defs>
<filter id="filter0_d_436_6258" x="0" y="0" width="469.602" height="97.6562" filterUnits="userSpaceOnUse" color-interpolation-filters="sRGB">
<feFlood flood-opacity="0" result="BackgroundImageFix"/>
<feColorMatrix in="SourceAlpha" type="matrix" values="0 0 0 0 0 0 0 0 0 0 0 0 0 0 0 0 0 0 127 0" result="hardAlpha"/>
<feOffset/>
<feGaussianBlur stdDeviation="10"/>
<feComposite in2="hardAlpha" operator="out"/>
<feColorMatrix type="matrix" values="0 0 0 0 0 0 0 0 0 0 0 0 0 0 0 0 0 0 0.5 0"/>
<feBlend mode="normal" in2="BackgroundImageFix" result="effect1_dropShadow_436_6258"/>
<feBlend mode="normal" in="SourceGraphic" in2="effect1_dropShadow_436_6258" result="shape"/>
</filter>
</defs>
</svg>
